<svg width="20" height="19" viewBox="0 0 20 19" fill="none" xmlns="http://www.w3.org/2000/svg">
<path d="M8.29687 15.0948C8.29687 15.945 8.99249 16.6406 9.84269 16.6406C10.6929 16.6406 11.3885 15.945 11.3885 15.0948C11.3885 14.2446 10.6929 13.549 9.84269 13.549C8.99249 13.549 8.29687 14.2446 8.29687 15.0948Z" fill="#313333"/>
<path d="M8.29687 4.2745C8.29687 5.1247 8.99249 5.82031 9.84269 5.82031C10.6929 5.82031 11.3885 5.1247 11.3885 4.2745C11.3885 3.42431 10.6929 2.72869 9.84269 2.72869C8.99249 2.72869 8.29687 3.42431 8.29687 4.2745Z" fill="#313333"/>
<path d="M8.29687 9.68466C8.29687 10.5349 8.99249 11.2305 9.84269 11.2305C10.6929 11.2305 11.3885 10.5349 11.3885 9.68466C11.3885 8.83446 10.6929 8.13885 9.84269 8.13885C8.99249 8.13885 8.29687 8.83446 8.29687 9.68466Z" fill="#313333"/>
</svg>
