<svg width="128" height="127" viewBox="0 0 128 127" fill="none" xmlns="http://www.w3.org/2000/svg">
<path fill-rule="evenodd" clip-rule="evenodd" d="M64.1064 126.822C99.1273 126.822 127.517 98.432 127.517 63.4111C127.517 28.3901 99.1273 0 64.1064 0C29.0854 0 0.695312 28.3901 0.695312 63.4111C0.695312 98.432 29.0854 126.822 64.1064 126.822ZM98.5753 46.5168C100.918 44.1736 100.918 40.3747 98.5753 38.0315C96.2321 35.6884 92.4331 35.6884 90.09 38.0315L52.0586 76.0629L38.1229 62.1275C35.7797 59.7844 31.9807 59.7845 29.6376 62.1276C27.2945 64.4708 27.2945 68.2698 29.6377 70.6129L46.4018 87.3766C49.526 90.5008 54.5913 90.5007 57.7155 87.3766L98.5753 46.5168Z" fill="#FEBF10"/>
</svg>
